<?xml version="1.0" encoding="iso-8859-1"?>
<!-- Generator: Adobe Illustrator 19.0.0, SVG Export Plug-In . SVG Version: 6.00 Build 0)  -->
<svg version="1.1" id="Capa_1" xmlns="http://www.w3.org/2000/svg" xmlns:xlink="http://www.w3.org/1999/xlink" x="0px" y="0px"
	 viewBox="0 0 512 512" style="enable-background:new 0 0 512 512;" xml:space="preserve">
<g>
	<path style="fill:#AAC4DA;" d="M501.333,202.667v128c0,5.891-4.776,10.667-10.667,10.667H448V192h42.667
		C496.558,192,501.333,196.776,501.333,202.667z"/>
	<path style="fill:#AAC4DA;" d="M64,192v149.333H21.333c-5.891,0-10.667-4.776-10.667-10.667v-128
		c0-5.891,4.776-10.667,10.667-10.667H64z"/>
</g>
<path style="fill:#D9EEF7;" d="M448,341.333v96c-0.035,11.767-9.566,21.298-21.333,21.333h-32v10.667
	c0,5.891-4.776,10.667-10.667,10.667H128c-5.891,0-10.667-4.776-10.667-10.667v-10.667h-32
	c-11.767-0.035-21.298-9.566-21.333-21.333V96c0.035-11.767,9.566-21.298,21.333-21.333h64v-32C149.333,36.776,154.109,32,160,32
	h192c5.891,0,10.667,4.776,10.667,10.667v32h64C438.434,74.702,447.965,84.233,448,96V341.333z"/>
<path style="fill:#AAC4DA;" d="M362.667,42.667C362.667,36.776,357.891,32,352,32H160c-5.891,0-10.667,4.776-10.667,10.667v32
	h213.333V42.667z"/>
<g>
	<path style="fill:#95ADC0;" d="M373.333,341.333V384c0,5.891-4.776,10.667-10.667,10.667h-53.333v-64h53.333
		C368.558,330.667,373.333,335.442,373.333,341.333z"/>
	<path style="fill:#95ADC0;" d="M202.667,330.667H256v64h-53.333V330.667z"/>
</g>
<g>
	<path style="fill:#AAC4DA;" d="M256,330.667h53.333v64H256V330.667z"/>
	<path style="fill:#AAC4DA;" d="M202.667,330.667v64h-53.333c-5.891,0-10.667-4.776-10.667-10.667v-42.667
		c0-5.891,4.776-10.667,10.667-10.667H202.667z"/>
</g>
<g>
	<circle style="fill:#F2F2F2;" cx="170.667" cy="213.333" r="53.333"/>
	<circle style="fill:#F2F2F2;" cx="341.333" cy="213.333" r="53.333"/>
</g>
<g>
	<path style="fill:#4C5B66;" d="M490.667,181.333h-21.333v21.333h21.333v128h-21.333V352h21.333
		c11.782,0,21.333-9.551,21.333-21.333v-128C512,190.885,502.449,181.333,490.667,181.333z"/>
	<path style="fill:#4C5B66;" d="M0,202.667v128C0,342.449,9.551,352,21.333,352h21.333v-21.333H21.333v-128h21.333v-21.333H21.333
		C9.551,181.333,0,190.885,0,202.667z"/>
	<path style="fill:#4C5B66;" d="M426.667,64h-53.333V42.667c0-11.782-9.551-21.333-21.333-21.333H160
		c-11.782,0-21.333,9.551-21.333,21.333V64H85.333c-17.673,0-32,14.327-32,32v341.333c0,17.673,14.327,32,32,32h21.333
		c0,11.782,9.551,21.333,21.333,21.333h256c11.782,0,21.333-9.551,21.333-21.333h21.333c17.673,0,32-14.327,32-32V96
		C458.667,78.327,444.34,64,426.667,64z M437.333,437.333c0,5.891-4.776,10.667-10.667,10.667h-32
		c-5.891,0-10.667,4.776-10.667,10.667v10.667H128v-10.667c0-5.891-4.776-10.667-10.667-10.667h-32
		c-5.891,0-10.667-4.776-10.667-10.667V96c0-5.891,4.776-10.667,10.667-10.667h64c5.891,0,10.667-4.776,10.667-10.667v-32h192v32
		c0,5.891,4.776,10.667,10.667,10.667h64c5.891,0,10.667,4.776,10.667,10.667V437.333z"/>
	<path style="fill:#4C5B66;" d="M224,64h64v21.333h-64V64z"/>
	<path style="fill:#4C5B66;" d="M53.333,32H32v21.333c0.527,5.365-3.395,10.14-8.76,10.667c-0.634,0.062-1.273,0.062-1.907,0
		c-5.891,0-10.667,4.776-10.667,10.667v96H32V83.552c13.201-3.987,21.996-16.445,21.333-30.219V32z"/>
	<path style="fill:#4C5B66;" d="M480,170.667h21.333v-96c-0.067-5.813-4.727-10.529-10.539-10.667
		c-5.384,0.572-10.211-3.329-10.783-8.713c-0.069-0.649-0.073-1.304-0.012-1.954V32h-21.333v21.333
		c-0.662,13.774,8.132,26.232,21.333,30.219V170.667z"/>
	<path style="fill:#4C5B66;" d="M362.667,320H149.333C137.551,320,128,329.551,128,341.333V384c0,11.782,9.551,21.333,21.333,21.333
		h213.333c11.782,0,21.333-9.551,21.333-21.333v-42.667C384,329.551,374.449,320,362.667,320z M266.667,341.333h32V384h-32V341.333z
		 M245.333,384h-32v-42.667h32V384z M149.333,341.333H192V384h-42.667V341.333z M362.667,384H320v-42.667h42.667V384z"/>
	<path style="fill:#4C5B66;" d="M234.667,213.333c0-35.346-28.654-64-64-64s-64,28.654-64,64s28.654,64,64,64
		C205.998,277.298,234.631,248.665,234.667,213.333z M128,213.333c0-23.564,19.103-42.667,42.667-42.667
		s42.667,19.103,42.667,42.667S194.231,256,170.667,256S128,236.897,128,213.333z"/>
	<path style="fill:#4C5B66;" d="M341.333,149.333c-35.346,0-64,28.654-64,64s28.654,64,64,64s64-28.654,64-64
		C405.298,178.002,376.665,149.369,341.333,149.333z M341.333,256c-23.564,0-42.667-19.103-42.667-42.667
		s19.103-42.667,42.667-42.667c23.564,0,42.667,19.103,42.667,42.667S364.898,256,341.333,256z"/>
	<path style="fill:#4C5B66;" d="M160,202.667h21.333V224H160V202.667z"/>
	<path style="fill:#4C5B66;" d="M330.667,202.667H352V224h-21.333V202.667z"/>
	<path style="fill:#4C5B66;" d="M181.333,64h21.333v21.333h-21.333V64z"/>
	<path style="fill:#4C5B66;" d="M309.333,64h21.333v21.333h-21.333V64z"/>
</g>
<g>
</g>
<g>
</g>
<g>
</g>
<g>
</g>
<g>
</g>
<g>
</g>
<g>
</g>
<g>
</g>
<g>
</g>
<g>
</g>
<g>
</g>
<g>
</g>
<g>
</g>
<g>
</g>
<g>
</g>
</svg>
